# Blender 4.2.1 LTS
# www.blender.org
mtllib target.mtl
o Cube
v 0.100000 0.100000 -0.010000
v 0.100000 -0.100000 -0.010000
v 0.100000 0.100000 0.010000
v 0.100000 -0.100000 0.010000
v -0.100000 0.100000 -0.010000
v -0.100000 -0.100000 -0.010000
v -0.100000 0.100000 0.010000
v -0.100000 -0.100000 0.010000
vn -0.0000 1.0000 -0.0000
vn -0.0000 -0.0000 1.0000
vn -1.0000 -0.0000 -0.0000
vn -0.0000 -1.0000 -0.0000
vn 1.0000 -0.0000 -0.0000
vn -0.0000 -0.0000 -1.0000
vt 0.993070 0.948080
vt 0.975878 0.965272
vt 0.975878 0.948080
vt 0.958686 0.982464
vt 0.958686 0.965272
vt 0.975878 0.913696
vt 0.958686 0.930888
vt 0.958686 0.913696
vt 0.958686 0.948080
vt 0.941495 0.965272
vt 0.941495 0.948080
vt 0.975878 0.930888
vt 0.993070 0.965272
vt 0.975878 0.982464
s 0
f 5/1/1 3/2/1 1/3/1
f 3/2/2 8/4/2 4/5/2
f 7/6/3 6/7/3 8/8/3
f 2/9/4 8/10/4 6/11/4
f 1/3/5 4/5/5 2/9/5
f 5/12/6 2/9/6 6/7/6
f 5/1/1 7/13/1 3/2/1
f 3/2/2 7/14/2 8/4/2
f 7/6/3 5/12/3 6/7/3
f 2/9/4 4/5/4 8/10/4
f 1/3/5 3/2/5 4/5/5
f 5/12/6 1/3/6 2/9/6
